#!OML:ASF F:\VICON\USERDATA\INSTALL\rory3\rory3.ASF
:FULLY-SPECIFIED
:DEGREES
74
root 1.1665387161745775 17.923835076020467 49.59739130461974 -3.663144556599253 2.2172870436813277 -3.1828408158406143
lfemur -18.66823686031277 -3.4787751123189543 -19.914796744800395
ltibia 24.688033338673364
lfoot -6.923696973102969 -0.5147768801732129
ltoes -10.579140430679484
rfemur -0.45973296696883637 1.8624033604876675 26.07937030953986
rtibia 44.48399991706653
rfoot -1.315945597849697 -9.760704873894914
rtoes 8.495319956714763
lowerback -1.0 0.489944512629544 3.2380863650686895
upperback -0.1264528085846136 1.4899462440849378 1.1033231872042588
thorax -4.886375037236405 0.7684579976806929 -1.232650275176757
lowerneck -16.012269614588273 -3.382177091351732 -1.653015207534902
upperneck 21.60901357922221 -4.490439487617178 0.9718079028874436
head 9.60499970784994 -2.1303546400392475 -0.06100661735798173
lclavicle 3.634271238319242e-16 -8.461199120158298e-16
lhumerus -34.99915244376274 6.623889209373654 81.30250998151945
lradius 24.097011789376705
lwrist 9.631370585232737
lhand -28.539450131090273 19.59068344586589
lfingers nan
lthumb -2.1362645192540772 49.15553187831847
rclavicle 4.69837270834566e-16 -7.82447999860275e-16
rhumerus -24.073685571197608 -12.398301570311578 -76.313177813225
rradius 33.750390090839225
rwrist 1.5245263697849638
rhand -17.435894206811586 -1.0
rfingers nan
rthumb 8.911003913021244 -7.32844766270807
75
root 1.1713718768024157 17.927813286109373 49.71374678162041 -3.703573824794993 2.1927259657559084 -2.041297096957929
lfemur -15.20978687732362 -3.7925796056411682 -21.384423181310748
ltibia 20.605766400615295
lfoot -6.68403279710529 -2.9438206251757646
ltoes -9.08681286605873
rfemur -3.2267298805627824 1.2473170768348387 24.48235784887008
rtibia 49.20857550896353
rfoot -1.6757850137468928 -9.852119441034965
rtoes 9.337888059830567
lowerback -1.0 0.3539562798332805 2.2688128736139275
upperback -0.08868560417240831 1.1672528317731299 0.9784140486643625
thorax -4.881941600846765 0.6360652914642754 -0.8663005514269339
lowerneck -16.059631266942937 -3.392569876409496 -1.6834977364130124
upperneck 21.5079414756769 -4.51194870866693 1.1638817681493379
head 9.583171212187326 -2.127897146248038 0.022399092390125733
lclavicle 3.6038908374370626e-16 -8.46908354686298e-16
lhumerus -34.784322136877066 6.407351529018994 81.09991878738356
lradius 24.70635018539585
lwrist 9.47031573636579
lhand -28.65503398090917 19.34126942563734
lfingers nan
lthumb -2.1678330809262802 49.149044923872744
rclavicle 4.638764980574176e-16 -7.837007936519491e-16
rhumerus -24.521408107838784 -12.015164623065562 -77.00758556393701
rradius 33.55083220656972
rwrist 1.7890336241453326
rhand -17.44668965176979 -1.0
rfingers nan
rthumb 8.9225757337423 -7.313826566835303
76
root 1.180912280397563 17.93074632025498 50.67718159049296 -3.6574439144264965 2.2508966492357327 -1.2274078563585358
lfemur -11.792199166816175 -4.10606560479697 -22.62212363222155
ltibia 18.093490953924817
lfoot -6.754007525512054 -4.124087811509756
ltoes -8.415637249260675
rfemur -6.834285581621273 0.6496877541178692 23.18120654904526
rtibia 54.5039927663763
rfoot -2.823419719799687 -9.45061127024095
rtoes 9.760205334790143
lowerback -1.0 0.14567933663660101 1.476544089353802
upperback -0.04977966914569981 0.7860948379440892 0.9130829874775386
thorax -4.929134626502662 0.462526408489932 -0.464818500702774
lowerneck -16.116844326363985 -3.392376325919655 -1.6836035740453181
upperneck 21.386175767186483 -4.515960167929404 1.3353940199839696
head 9.557715755272175 -2.118685482345453 0.09791629527266954
lclavicle 3.552359169578625e-16 -8.489067893318492e-16
lhumerus -34.354857625368126 5.989986324472838 80.90521476898968
lradius 25.26956568783421
lwrist 9.283128189460598
lhand -28.517518499796434 19.65336610210604
lfingers nan
lthumb -2.1061967059944537 49.316581246659226
rclavicle 4.559012512717558e-16 -7.856183863440117e-16
rhumerus -25.042035821444085 -11.999565649021388 -77.76704888175952
rradius 33.184582291166386
rwrist 2.1599096544458622
rhand -17.459117181551274 -1.0
rfingers nan
rthumb 8.924281100887564 -7.295121319265643
77
root 1.1767817051138256 17.927201692765188 51.80202922875689 -3.6175707062657567 2.285379065175058 -0.30955252204222905
lfemur -8.315414750926545 -4.433365857137467 -23.943525020453894
ltibia 16.97531837193958
lfoot -7.110732581795628 -4.855637251801843
ltoes -6.850739948105565
rfemur -10.721605230755381 0.02942472010499042 21.75108145696904
rtibia 59.401238211998205
rfoot -4.300735074569736 -8.361515422534666
rtoes 9.801351398318463
lowerback -1.0 -0.12932222184302378 0.5161848863836959
upperback -0.0022724215301684336 0.2909582223277269 0.8381759582337437
thorax -5.011574139796659 0.22455311885219015 0.018873119353536527
lowerneck -16.186143788936835 -3.377969633776141 -1.649436736627734
upperneck 21.269323453558023 -4.497710510507558 1.4628111358404277
head 9.536690559152788 -2.10258210667939 0.15684283234277419
lclavicle 3.4859228059771073e-16 -8.517879536269503e-16
lhumerus -33.69834721015093 5.477346111162219 80.74684236295907
lradius 25.783108711272824
lwrist 9.063121187452449
lhand -28.56465717432118 19.545134436764343
lfingers nan
lthumb -2.1064331935172276 49.316369774468434
rclavicle 4.468110603170301e-16 -7.878341510559986e-16
rhumerus -25.620680012558605 -12.401600714770375 -78.54852396700758
rradius 32.689739630496256
rwrist 2.489732206011703
rhand -17.466743351924812 -1.0
rfingers nan
rthumb 8.895330338783866 -7.338183121231099
78
root 1.1799206008795309 17.920507603887064 52.947430421710095 -3.6411301834519127 2.2023849146431456 1.0929062517056318
lfemur -4.762466641977774 -4.78692639446926 -25.64685933848574
ltibia 16.79661219103027
lfoot -6.576532616453639 -5.133989911442957
ltoes -5.8575034660409795
rfemur -14.362050473862006 -0.6016600491521422 19.91593002911155
rtibia 62.932197383053975
rfoot -5.809949498341558 -6.706161308133668
rtoes 9.47708879450862
lowerback -1.0 -0.4373532695367058 -0.8149435445247026
upperback 0.06340541735682678 -0.29733981260961684 0.6973130492122417
thorax -5.0769257447972755 -0.06755377287573067 0.598398318554737
lowerneck -16.261722870455348 -3.341692584033583 -1.58912364624253
upperneck 21.181006952737324 -4.4441870930878755 1.5330858570503612
head 9.5284757668473 -2.0762130263476477 0.19845393853118315
lclavicle 3.4007377590795956e-16 -8.55677107001421e-16
lhumerus -32.84097902447227 4.9174635850062405 80.63835335785397
lradius 26.23647344517943
lwrist 8.772881865906633
lhand -28.40180022044981 19.817335171728608
lfingers nan
lthumb -2.0050393912608984 49.44888609620786
rclavicle 4.3697193193543806e-16 -7.895774959412055e-16
rhumerus -26.25472307097875 -13.143476731519062 -79.29899865128687
rradius 32.12744229111235
rwrist 2.4529927124521
rhand -17.473602514386066 -1.0
rfingers nan
rthumb 8.878831428165059 -7.359885698943773
